<mxfile host="app.diagrams.net" modified="2023-06-03T13:04:16.217Z" agent="Mozilla/5.0 (Windows NT 10.0; Win64; x64) AppleWebKit/537.36 (KHTML, like Gecko) Chrome/114.0.0.0 Safari/537.36" etag="Z4plI3WhOXyHA0TGPvLL" version="21.3.4" type="device">
  <diagram name="Page-1" id="pDOmgPNTRlXEQb71xhJQ">
    <mxGraphModel dx="2284" dy="796" grid="1" gridSize="10" guides="1" tooltips="1" connect="1" arrows="1" fold="1" page="1" pageScale="1" pageWidth="850" pageHeight="1100" math="0" shadow="0">
      <root>
        <mxCell id="0" />
        <mxCell id="1" parent="0" />
        <mxCell id="qLmOOXOL581mcVEHTOo--3" value="" style="edgeStyle=orthogonalEdgeStyle;rounded=0;orthogonalLoop=1;jettySize=auto;html=1;" edge="1" parent="1" source="qLmOOXOL581mcVEHTOo--1" target="qLmOOXOL581mcVEHTOo--2">
          <mxGeometry relative="1" as="geometry" />
        </mxCell>
        <mxCell id="qLmOOXOL581mcVEHTOo--1" value="Start" style="ellipse;whiteSpace=wrap;html=1;" vertex="1" parent="1">
          <mxGeometry x="160" y="30" width="120" height="50" as="geometry" />
        </mxCell>
        <mxCell id="qLmOOXOL581mcVEHTOo--5" value="" style="edgeStyle=orthogonalEdgeStyle;rounded=0;orthogonalLoop=1;jettySize=auto;html=1;" edge="1" parent="1" source="qLmOOXOL581mcVEHTOo--2" target="qLmOOXOL581mcVEHTOo--4">
          <mxGeometry relative="1" as="geometry" />
        </mxCell>
        <mxCell id="qLmOOXOL581mcVEHTOo--2" value="Load Dataset" style="whiteSpace=wrap;html=1;" vertex="1" parent="1">
          <mxGeometry x="160" y="120" width="120" height="40" as="geometry" />
        </mxCell>
        <mxCell id="qLmOOXOL581mcVEHTOo--7" value="" style="edgeStyle=orthogonalEdgeStyle;rounded=0;orthogonalLoop=1;jettySize=auto;html=1;" edge="1" parent="1" source="qLmOOXOL581mcVEHTOo--4" target="qLmOOXOL581mcVEHTOo--6">
          <mxGeometry relative="1" as="geometry" />
        </mxCell>
        <mxCell id="qLmOOXOL581mcVEHTOo--4" value="Data wrangling and Cleaning" style="whiteSpace=wrap;html=1;" vertex="1" parent="1">
          <mxGeometry x="160" y="200" width="120" height="40" as="geometry" />
        </mxCell>
        <mxCell id="qLmOOXOL581mcVEHTOo--9" value="" style="edgeStyle=orthogonalEdgeStyle;rounded=0;orthogonalLoop=1;jettySize=auto;html=1;" edge="1" parent="1" source="qLmOOXOL581mcVEHTOo--6" target="qLmOOXOL581mcVEHTOo--8">
          <mxGeometry relative="1" as="geometry" />
        </mxCell>
        <mxCell id="qLmOOXOL581mcVEHTOo--6" value="Save Dataset" style="whiteSpace=wrap;html=1;" vertex="1" parent="1">
          <mxGeometry x="160" y="280" width="120" height="40" as="geometry" />
        </mxCell>
        <mxCell id="qLmOOXOL581mcVEHTOo--11" value="" style="edgeStyle=orthogonalEdgeStyle;rounded=0;orthogonalLoop=1;jettySize=auto;html=1;" edge="1" parent="1" source="qLmOOXOL581mcVEHTOo--8" target="qLmOOXOL581mcVEHTOo--10">
          <mxGeometry relative="1" as="geometry" />
        </mxCell>
        <mxCell id="qLmOOXOL581mcVEHTOo--13" value="" style="edgeStyle=orthogonalEdgeStyle;rounded=0;orthogonalLoop=1;jettySize=auto;html=1;" edge="1" parent="1" source="qLmOOXOL581mcVEHTOo--8" target="qLmOOXOL581mcVEHTOo--12">
          <mxGeometry relative="1" as="geometry" />
        </mxCell>
        <mxCell id="qLmOOXOL581mcVEHTOo--8" value="Load and preprocess the data" style="whiteSpace=wrap;html=1;" vertex="1" parent="1">
          <mxGeometry x="160" y="360" width="120" height="40" as="geometry" />
        </mxCell>
        <mxCell id="qLmOOXOL581mcVEHTOo--15" value="" style="edgeStyle=orthogonalEdgeStyle;rounded=0;orthogonalLoop=1;jettySize=auto;html=1;" edge="1" parent="1" source="qLmOOXOL581mcVEHTOo--10" target="qLmOOXOL581mcVEHTOo--14">
          <mxGeometry relative="1" as="geometry" />
        </mxCell>
        <mxCell id="qLmOOXOL581mcVEHTOo--23" value="" style="edgeStyle=orthogonalEdgeStyle;rounded=0;orthogonalLoop=1;jettySize=auto;html=1;" edge="1" parent="1" source="qLmOOXOL581mcVEHTOo--10" target="qLmOOXOL581mcVEHTOo--21">
          <mxGeometry relative="1" as="geometry">
            <Array as="points">
              <mxPoint x="130" y="460" />
              <mxPoint x="130" y="420" />
            </Array>
          </mxGeometry>
        </mxCell>
        <mxCell id="qLmOOXOL581mcVEHTOo--10" value="Split the dataset" style="whiteSpace=wrap;html=1;" vertex="1" parent="1">
          <mxGeometry x="160" y="440" width="120" height="40" as="geometry" />
        </mxCell>
        <mxCell id="qLmOOXOL581mcVEHTOo--12" value="&lt;div&gt;1.&lt;span style=&quot;white-space: pre;&quot;&gt;	&lt;/span&gt;Importing the necessary NLTK resources&lt;/div&gt;&lt;div&gt;2.&lt;span style=&quot;white-space: pre;&quot;&gt;	&lt;/span&gt;Define the preprocess_pidgin_data function&lt;/div&gt;&lt;div&gt;&lt;ul&gt;&lt;li&gt;Convert text to lowercase&lt;/li&gt;&lt;li&gt;Remove punctuation and special characters&lt;/li&gt;&lt;li&gt;Tokenize the text&lt;/li&gt;&lt;li&gt;Define your custom list of Pidgin stopwords&lt;/li&gt;&lt;li&gt;Remove stop words&lt;/li&gt;&lt;li&gt;Lemmatize the tokens&lt;/li&gt;&lt;li&gt;Join the tokens back into a single string&lt;/li&gt;&lt;/ul&gt;&lt;/div&gt;" style="whiteSpace=wrap;html=1;align=left;" vertex="1" parent="1">
          <mxGeometry x="360" y="295" width="280" height="170" as="geometry" />
        </mxCell>
        <mxCell id="qLmOOXOL581mcVEHTOo--17" value="" style="edgeStyle=orthogonalEdgeStyle;rounded=0;orthogonalLoop=1;jettySize=auto;html=1;" edge="1" parent="1" source="qLmOOXOL581mcVEHTOo--14" target="qLmOOXOL581mcVEHTOo--16">
          <mxGeometry relative="1" as="geometry" />
        </mxCell>
        <mxCell id="qLmOOXOL581mcVEHTOo--14" value="Feature extraction" style="whiteSpace=wrap;html=1;" vertex="1" parent="1">
          <mxGeometry x="160" y="520" width="120" height="40" as="geometry" />
        </mxCell>
        <mxCell id="qLmOOXOL581mcVEHTOo--19" value="" style="edgeStyle=orthogonalEdgeStyle;rounded=0;orthogonalLoop=1;jettySize=auto;html=1;" edge="1" parent="1" source="qLmOOXOL581mcVEHTOo--16" target="qLmOOXOL581mcVEHTOo--18">
          <mxGeometry relative="1" as="geometry" />
        </mxCell>
        <mxCell id="qLmOOXOL581mcVEHTOo--16" value="Classification Model&lt;br&gt;(Random Forest Classifier)" style="whiteSpace=wrap;html=1;" vertex="1" parent="1">
          <mxGeometry x="160" y="600" width="120" height="50" as="geometry" />
        </mxCell>
        <mxCell id="qLmOOXOL581mcVEHTOo--28" value="" style="edgeStyle=orthogonalEdgeStyle;rounded=0;orthogonalLoop=1;jettySize=auto;html=1;" edge="1" parent="1" source="qLmOOXOL581mcVEHTOo--18" target="qLmOOXOL581mcVEHTOo--27">
          <mxGeometry relative="1" as="geometry" />
        </mxCell>
        <mxCell id="qLmOOXOL581mcVEHTOo--18" value="Train the model" style="whiteSpace=wrap;html=1;" vertex="1" parent="1">
          <mxGeometry x="160" y="680" width="120" height="40" as="geometry" />
        </mxCell>
        <mxCell id="qLmOOXOL581mcVEHTOo--21" value="Train set" style="whiteSpace=wrap;html=1;" vertex="1" parent="1">
          <mxGeometry x="-30" y="400" width="120" height="40" as="geometry" />
        </mxCell>
        <mxCell id="qLmOOXOL581mcVEHTOo--24" value="Test set" style="whiteSpace=wrap;html=1;" vertex="1" parent="1">
          <mxGeometry x="-30" y="480" width="120" height="40" as="geometry" />
        </mxCell>
        <mxCell id="qLmOOXOL581mcVEHTOo--26" value="" style="edgeStyle=orthogonalEdgeStyle;rounded=0;orthogonalLoop=1;jettySize=auto;html=1;entryX=1;entryY=0.5;entryDx=0;entryDy=0;" edge="1" parent="1" target="qLmOOXOL581mcVEHTOo--24">
          <mxGeometry relative="1" as="geometry">
            <mxPoint x="130" y="450" as="sourcePoint" />
            <mxPoint x="110" y="470" as="targetPoint" />
            <Array as="points">
              <mxPoint x="130" y="460" />
              <mxPoint x="130" y="500" />
            </Array>
          </mxGeometry>
        </mxCell>
        <mxCell id="qLmOOXOL581mcVEHTOo--30" value="" style="edgeStyle=orthogonalEdgeStyle;rounded=0;orthogonalLoop=1;jettySize=auto;html=1;" edge="1" parent="1" source="qLmOOXOL581mcVEHTOo--27" target="qLmOOXOL581mcVEHTOo--29">
          <mxGeometry relative="1" as="geometry" />
        </mxCell>
        <mxCell id="qLmOOXOL581mcVEHTOo--27" value="Evaluate the model" style="whiteSpace=wrap;html=1;" vertex="1" parent="1">
          <mxGeometry x="160" y="760" width="120" height="40" as="geometry" />
        </mxCell>
        <mxCell id="qLmOOXOL581mcVEHTOo--29" value="Stop" style="ellipse;whiteSpace=wrap;html=1;" vertex="1" parent="1">
          <mxGeometry x="180" y="840" width="80" height="40" as="geometry" />
        </mxCell>
      </root>
    </mxGraphModel>
  </diagram>
</mxfile>
